<!-- Generator: Adobe Illustrator 24.0.0, SVG Export Plug-In  -->
<svg version="1.1" xmlns="http://www.w3.org/2000/svg" xmlns:xlink="http://www.w3.org/1999/xlink" x="0px" y="0px"
	 width="571.51px" height="777.15px" viewBox="0 0 571.51 777.15" style="enable-background:new 0 0 571.51 777.15;"
	 xml:space="preserve">
<defs>
</defs>
<g>
	<path d="M44.66,406.2l-23,205.17L0,616.77l0.01,7.13l19.91,2.96l-1.04,9.25l-7.84,3.66L7.5,665.64l7.95,1.1l-3.98,35.5l431.2,74.91
		l3.77-44.7l9.28,1.35l99.49-118.27l10.24,1.24l-1.12-12.09l7.17-8.53l-1.88-18.48h-7.79l-11.05-119.21l6.68-5.29l-1.87-23.33h-7.46
		l-15.06-162.44l9.02-3.32l-2.69-26.3h-9.07h0L526.27,0H90.2L69.29,186.5l-22.27-0.97l-1.15,7.02l21.54,10.71h0L45.46,399.11"/>
	<polygon points="528.08,213.72 538.74,198.02 538.49,191.48 526.02,191.48 527.53,207.78 	"/>
	<polygon points="544.98,395.65 555.54,377.63 555.29,371.1 542.82,371.1 544.42,389.71 	"/>
	<polygon points="560.26,559.2 570.9,543.1 570.65,536.57 558.1,534.64 559.7,553.26 	"/>
	<polygon points="41.91,397.56 29.37,470.87 37.33,471.65 50.01,393.8 	"/>
	<polygon points="58.17,227.32 54.79,254.97 61.5,256.05 64.84,226.24 	"/>
</g>
</svg>
