<!-- Generator: Adobe Illustrator 24.0.0, SVG Export Plug-In  -->
<svg version="1.1" xmlns="http://www.w3.org/2000/svg" xmlns:xlink="http://www.w3.org/1999/xlink" x="0px" y="0px"
	 width="100.36px" height="101.94px" viewBox="0 0 100.36 101.94" style="enable-background:new 0 0 100.36 101.94;"
	 xml:space="preserve">
<style type="text/css">
	.st0{fill:#FF00CC;stroke:#FFFF00;stroke-width:0.5;stroke-miterlimit:10;}
	.st1{fill:#FFFF00;stroke:#FF00CC;stroke-width:0.5;stroke-miterlimit:10;}
</style>
<defs>
</defs>
<g>
	<path class="st0" d="M83.07,29.1c0.4-1.58,2.92-1.17,4.04-3.2c0.86-1.56-0.12-2.76,0.68-3.49c1.17-1.06,4.99-0.08,6.34,2.5
		c1.61,3.1-0.87,7.44-2.48,7.47c-1.22,0.03-1.57-2.44-3.22-2.53c-1.64-0.09-2.41,2.28-3.77,2.01C83.68,31.68,82.79,30.2,83.07,29.1z
		"/>
	<path class="st0" d="M87.53,63.42c1.22-1.07,3.07,0.69,5.14-0.34c1.6-0.8,1.47-2.34,2.54-2.48c1.57-0.21,4.16,2.77,3.8,5.66
		c-0.43,3.46-4.94,5.63-6.28,4.75c-1.02-0.67,0.09-2.9-1.22-3.91c-1.3-1.01-3.28,0.51-4.25-0.49
		C86.58,65.88,86.69,64.16,87.53,63.42z"/>
	<path class="st0" d="M88.31,41.94c0.63-1.5,3.06-0.72,4.47-2.55c1.09-1.42,0.3-2.74,1.2-3.34c1.32-0.88,4.95,0.67,5.89,3.43
		c1.13,3.3-1.98,7.22-3.57,7.02c-1.21-0.16-1.19-2.65-2.81-2.99c-1.61-0.34-2.73,1.89-4.03,1.42
		C88.53,44.58,87.87,42.98,88.31,41.94z"/>
	<path class="st0" d="M80.76,75.82c1.59-0.34,2.34,2.11,4.65,2.21c1.78,0.08,2.42-1.32,3.43-0.92c1.47,0.58,2.27,4.45,0.55,6.79
		c-2.07,2.81-7.06,2.5-7.8,1.07c-0.56-1.08,1.5-2.49,0.85-4.01c-0.64-1.51-3.11-1.16-3.47-2.5C78.72,77.5,79.66,76.05,80.76,75.82z"
		/>
	<path class="st0" d="M18.08,74.85c-0.26,1.61-2.81,1.41-3.76,3.52c-0.73,1.63,0.35,2.74-0.39,3.53c-1.08,1.16-4.97,0.5-6.53-1.97
		c-1.87-2.95,0.25-7.49,1.84-7.65c1.21-0.13,1.77,2.3,3.42,2.25c1.64-0.05,2.21-2.48,3.59-2.32C17.26,72.34,18.26,73.74,18.08,74.85
		z"/>
	<path class="st0" d="M31.36,86.46c0.26,1.61-2.21,2.24-2.43,4.54c-0.17,1.78,1.21,2.48,0.76,3.47c-0.65,1.44-4.55,2.06-6.81,0.23
		c-2.71-2.2-2.17-7.17-0.71-7.84c1.11-0.51,2.42,1.61,3.97,1.04c1.54-0.57,1.3-3.06,2.66-3.35C29.77,84.34,31.17,85.35,31.36,86.46z
		"/>
	<path class="st0" d="M44.21,90.13c1.01,1.28-0.85,3.03,0.08,5.15c0.72,1.64,2.26,1.59,2.35,2.67c0.13,1.58-2.98,4.01-5.85,3.5
		c-3.44-0.61-5.37-5.22-4.42-6.52c0.72-0.98,2.89,0.24,3.97-1.01c1.07-1.25-0.34-3.3,0.71-4.22C41.8,89.04,43.52,89.24,44.21,90.13z
		"/>
	<path class="st0" d="M54.97,89.82c1.38,0.86,0.23,3.14,1.82,4.82c1.23,1.29,2.66,0.72,3.11,1.71c0.66,1.44-1.44,4.78-4.31,5.28
		c-3.44,0.6-6.82-3.09-6.37-4.63c0.35-1.17,2.8-0.76,3.39-2.3c0.58-1.54-1.44-2.99-0.77-4.21C52.34,89.62,54.02,89.23,54.97,89.82z"
		/>
	<path class="st0" d="M68.73,86.52c1.59,0.36,1.24,2.89,3.29,3.96c1.58,0.82,2.75-0.18,3.5,0.6c1.09,1.15,0.2,4.99-2.35,6.4
		c-3.06,1.69-7.46-0.7-7.53-2.3c-0.05-1.22,2.4-1.63,2.46-3.28c0.05-1.64-2.34-2.36-2.1-3.73C66.17,87.19,67.63,86.27,68.73,86.52z"
		/>
	<path class="st0" d="M71.1,16.27c-0.3-1.6,2.16-2.29,2.32-4.6c0.12-1.78-1.27-2.45-0.85-3.45c0.62-1.46,4.5-2.17,6.8-0.4
		c2.77,2.13,2.34,7.12,0.9,7.82c-1.09,0.54-2.45-1.55-3.99-0.94c-1.53,0.61-1.23,3.09-2.58,3.41C72.73,18.34,71.31,17.37,71.1,16.27
		z"/>
	<path class="st0" d="M40.71,12.15C39.4,11.18,40.74,9,39.3,7.2c-1.12-1.39-2.59-0.94-2.96-1.96c-0.53-1.49,1.84-4.64,4.74-4.9
		c3.48-0.31,6.54,3.65,5.96,5.15C46.59,6.61,44.18,6,43.46,7.49c-0.71,1.48,1.19,3.1,0.41,4.26C43.32,12.57,41.61,12.82,40.71,12.15
		z"/>
	<path class="st0" d="M32.65,16.1c-1.55-0.51-0.96-3-2.91-4.25c-1.5-0.97-2.76-0.07-3.43-0.92c-0.98-1.24,0.27-4.99,2.94-6.15
		c3.2-1.39,7.36,1.39,7.28,2.99c-0.06,1.22-2.54,1.4-2.75,3.04c-0.2,1.63,2.11,2.57,1.74,3.9C35.26,15.67,33.72,16.45,32.65,16.1z"
		/>
	<path class="st0" d="M18.39,27.68c-1.62,0.18-2.11-2.33-4.4-2.67c-1.77-0.26-2.54,1.07-3.51,0.57c-1.41-0.73-1.81-4.65,0.14-6.81
		c2.34-2.59,7.28-1.77,7.87-0.28c0.45,1.13-1.74,2.32-1.25,3.9c0.49,1.57,2.98,1.47,3.2,2.84C20.59,26.22,19.51,27.56,18.39,27.68z"
		/>
	<path class="st0" d="M13.74,39.06c-1.41,0.81-2.87-1.29-5.1-0.69c-1.72,0.46-1.9,2-2.99,1.92c-1.58-0.11-3.52-3.54-2.59-6.3
		c1.11-3.31,5.97-4.53,7.1-3.4c0.86,0.86-0.67,2.83,0.41,4.08c1.07,1.24,3.32,0.16,4.06,1.33C15.17,36.83,14.71,38.5,13.74,39.06z"
		/>
	<path class="st0" d="M12.12,62.67c-0.83,1.4-3.13,0.29-4.78,1.92c-1.27,1.25-0.67,2.68-1.65,3.15c-1.43,0.69-4.81-1.34-5.37-4.2
		c-0.67-3.43,2.95-6.89,4.5-6.46C6,57.4,5.64,59.86,7.2,60.42c1.55,0.55,2.96-1.5,4.19-0.85C12.27,60.03,12.7,61.71,12.12,62.67z"/>
	<circle class="st1" cx="50.24" cy="51.04" r="40.73"/>
	<path class="st0" d="M57.44,19.42c-1.02-1.27,0.82-3.04-0.13-5.15c-0.73-1.63-2.28-1.56-2.38-2.64c-0.15-1.58,2.94-4.04,5.81-3.56
		c3.44,0.57,5.42,5.17,4.49,6.47c-0.71,0.99-2.9-0.21-3.96,1.06c-1.06,1.26,0.38,3.3-0.66,4.22C59.86,20.48,58.14,20.29,57.44,19.42
		z"/>
	<path class="st0" d="M66.96,14.94c-0.65-1.49,1.59-2.72,1.23-5c-0.28-1.76-1.78-2.11-1.6-3.17c0.28-1.56,3.9-3.12,6.54-1.91
		c3.17,1.46,3.87,6.41,2.62,7.42c-0.95,0.77-2.74-0.96-4.1-0.03c-1.35,0.93-0.51,3.28-1.75,3.9C69.02,16.6,67.41,15.97,66.96,14.94z
		"/>
	<path class="st0" d="M74.01,24.56c0.08-1.63,2.63-1.73,3.32-3.93c0.53-1.7-0.66-2.68-0.02-3.55c0.94-1.28,4.88-1.07,6.71,1.2
		c2.19,2.72,0.62,7.47-0.95,7.82c-1.19,0.27-2.02-2.08-3.66-1.84c-1.63,0.24-1.91,2.72-3.3,2.72
		C75.11,26.96,73.95,25.69,74.01,24.56z"/>
	<path class="st0" d="M40.27,19.95c-1.45-0.75-0.48-3.11-2.2-4.66c-1.33-1.19-2.71-0.51-3.24-1.46c-0.77-1.38,1.06-4.88,3.88-5.6
		c3.38-0.87,7.05,2.54,6.72,4.11c-0.25,1.19-2.73,0.98-3.2,2.56c-0.46,1.58,1.68,2.87,1.1,4.13C42.92,19.94,41.27,20.46,40.27,19.95
		z"/>
	<path class="st0" d="M23.47,27.9c-1.61-0.2-1.52-2.76-3.66-3.62c-1.66-0.66-2.72,0.45-3.54-0.26c-1.2-1.04-0.69-4.95,1.71-6.6
		c2.88-1.98,7.49-0.04,7.72,1.55c0.17,1.2-2.23,1.86-2.12,3.51c0.11,1.64,2.56,2.12,2.45,3.5C25.95,26.98,24.59,28.04,23.47,27.9z"
		/>
	<path class="st0" d="M19.85,45.06c-1.56,0.47-2.51-1.9-4.82-1.81c-1.78,0.07-2.3,1.52-3.34,1.21c-1.52-0.46-2.64-4.24-1.12-6.72
		c1.82-2.98,6.83-3.09,7.68-1.73c0.65,1.03-1.28,2.61-0.51,4.07c0.77,1.45,3.2,0.89,3.67,2.2C21.74,43.21,20.93,44.73,19.85,45.06z"
		/>
	<path class="st0" d="M22.94,62.35c-0.75,1.44-3.11,0.46-4.67,2.17c-1.2,1.32-0.53,2.71-1.48,3.23c-1.39,0.76-4.87-1.09-5.58-3.91
		c-0.85-3.39,2.58-7.03,4.15-6.69c1.19,0.26,0.96,2.74,2.54,3.21c1.57,0.47,2.88-1.66,4.14-1.07C22.94,59.7,23.46,61.35,22.94,62.35
		z"/>
	<path class="st0" d="M24.44,77.2c-0.26,1.61-2.81,1.41-3.76,3.52c-0.73,1.63,0.35,2.74-0.39,3.53c-1.08,1.16-4.97,0.5-6.53-1.97
		c-1.87-2.95,0.25-7.49,1.84-7.65c1.21-0.13,1.77,2.3,3.42,2.25c1.64-0.05,2.21-2.48,3.59-2.32C23.62,74.68,24.62,76.08,24.44,77.2z
		"/>
	<path class="st0" d="M12.79,49.96c-0.83,1.4-3.13,0.29-4.78,1.92c-1.27,1.25-0.67,2.68-1.65,3.15c-1.43,0.69-4.81-1.34-5.37-4.2
		c-0.67-3.43,2.95-6.89,4.5-6.46c1.17,0.32,0.81,2.79,2.37,3.34c1.55,0.55,2.96-1.5,4.19-0.85C12.94,47.31,13.37,48.99,12.79,49.96z
		"/>
	<path class="st0" d="M48.31,11.92c-1.16-1.14,0.46-3.11-0.74-5.1c-0.92-1.53-2.44-1.28-2.67-2.34c-0.33-1.55,2.44-4.36,5.35-4.22
		c3.49,0.16,5.99,4.49,5.22,5.9c-0.59,1.06-2.9,0.13-3.81,1.51c-0.9,1.37,0.76,3.23-0.16,4.27C50.84,12.68,49.12,12.7,48.31,11.92z"
		/>
	<path class="st0" d="M36.77,85.05c0.76,1.44-1.4,2.82-0.88,5.08c0.4,1.74,1.93,1.97,1.82,3.05c-0.16,1.58-3.67,3.39-6.39,2.36
		c-3.27-1.23-4.31-6.13-3.14-7.22c0.89-0.83,2.8,0.77,4.09-0.26c1.28-1.03,0.27-3.31,1.47-4.01C34.6,83.54,36.25,84.05,36.77,85.05z
		"/>
	<path class="st0" d="M43.13,83.71c0.76,1.44-1.4,2.82-0.88,5.08c0.4,1.74,1.93,1.97,1.82,3.05c-0.16,1.58-3.67,3.39-6.39,2.36
		c-3.27-1.23-4.31-6.13-3.14-7.22c0.89-0.83,2.8,0.77,4.09-0.26c1.28-1.03,0.27-3.31,1.47-4.01C40.96,82.2,42.61,82.71,43.13,83.71z
		"/>
	<path class="st0" d="M59.67,82.73c1.47,0.7,0.58,3.09,2.35,4.59c1.37,1.15,2.73,0.42,3.28,1.35c0.81,1.36-0.9,4.91-3.7,5.73
		c-3.35,0.98-7.13-2.31-6.84-3.89c0.21-1.2,2.7-1.06,3.11-2.66c0.41-1.59-1.77-2.81-1.23-4.09C57.02,82.83,58.65,82.25,59.67,82.73z
		"/>
	<path class="st0" d="M73.4,75.82c1.59-0.34,2.34,2.11,4.65,2.21c1.78,0.08,2.42-1.32,3.43-0.92c1.47,0.58,2.27,4.45,0.55,6.79
		c-2.07,2.81-7.06,2.5-7.8,1.07c-0.56-1.08,1.5-2.49,0.85-4.01c-0.64-1.51-3.11-1.16-3.47-2.5C71.36,77.5,72.3,76.05,73.4,75.82z"/>
	<path class="st0" d="M78.65,60.44c1.46-0.73,2.79,1.45,5.06,0.98c1.75-0.37,2.01-1.89,3.09-1.75c1.57,0.2,3.31,3.74,2.23,6.44
		c-1.3,3.24-6.21,4.18-7.28,2.99c-0.81-0.91,0.83-2.78-0.18-4.09c-1-1.3-3.3-0.34-3.98-1.56C77.1,62.58,77.65,60.95,78.65,60.44z"/>
	<path class="st0" d="M78.64,41.53c0.48-1.56,2.98-1.02,4.2-2.98c0.94-1.52,0.02-2.76,0.86-3.45c1.23-1,4.99,0.18,6.2,2.83
		c1.45,3.18-1.26,7.38-2.86,7.33c-1.22-0.04-1.44-2.52-3.09-2.7c-1.63-0.18-2.53,2.15-3.87,1.81C79.12,44.13,78.31,42.6,78.64,41.53
		z"/>
	<path class="st0" d="M48.15,25.41c-0.82-1.33-1.73-1.12-2.34-2.34c-0.6-1.2-0.55-3.08,0.33-3.68c1.14-0.78,2.58,1.32,5.36,1
		c2.06-0.23,2.66-1.46,3.68-1c1.28,0.57,1.88,3.17,1,4.69c-0.59,1.03-1.47,0.88-2.01,2.01c-0.64,1.34,0.27,2.22-0.33,3.01
		c-0.79,1.04-3.48,0.97-4.69-0.33C48.27,27.81,49.07,26.9,48.15,25.41z"/>
	<path class="st0" d="M29.74,33.11c0.95,0.62,0.73,1.12,1.67,1.67c1.4,0.83,2.95,0.36,3.01,0.33c1-0.32,2.29-1.22,2.34-2.34
		c0.05-1.06-1.06-1.23-1.34-2.68c-0.25-1.29,0.54-1.63,0.33-3.01c-0.16-1.06-0.87-2.46-2.01-2.68c-1.13-0.21-2.17,0.83-2.34,1
		c-0.85,0.85-0.56,1.43-1.34,2.01c-0.72,0.53-1.11,0.16-2.34,0.67c-0.67,0.28-1.77,0.73-2.01,1.67c-0.22,0.86,0.36,1.83,1,2.34
		C27.73,32.92,28.49,32.3,29.74,33.11z"/>
	<path class="st0" d="M50.16,37.46c-0.62,0.15-0.96-1.08-2.01-1.34c-1.45-0.37-3.93,1.21-4.02,3.35c-0.05,1.23,0.69,2.46,1.67,3.01
		c1.17,0.66,1.94-0.05,3.01,0.67c1.01,0.68,0.65,1.52,1.67,2.34c0.95,0.76,2.62,1.12,3.68,0.33c1.11-0.82,1.02-2.5,1-2.68
		c-0.09-1.26-0.82-1.49-0.67-2.34c0.21-1.18,1.71-1.17,2.01-2.34c0.28-1.11-0.72-2.39-1.67-3.01c-0.9-0.59-2.43-1-3.35-0.33
		C50.53,35.83,50.84,37.3,50.16,37.46z"/>
	<path class="st0" d="M69.24,28.09c-0.5-0.64,0.79-1.82,0.33-2.68c-0.45-0.84-2.35-0.89-3.68-0.33c-0.99,0.41-2.23,1.4-2.34,2.68
		c-0.09,1.02,0.64,1.2,0.67,2.34c0.04,1.56-1.29,1.9-1.34,3.35c-0.05,1.38,1.08,3.1,2.68,3.35c0.95,0.15,2.13-0.21,2.68-1
		c0.48-0.7,0.17-1.29,0.67-1.67c0.61-0.47,1.33,0.21,2.34,0c1.39-0.29,2.76-2.18,2.34-3.68c-0.31-1.1-1.51-1.78-2.34-2.01
		C70.19,28.13,69.56,28.51,69.24,28.09z"/>
	<path class="st0" d="M40.79,47.5c-0.32-0.63-1.52-0.81-2.01-0.33c-0.62,0.61-0.01,2.24,0.67,2.34
		C40.12,49.62,41.19,48.29,40.79,47.5z"/>
	<path class="st0" d="M56.18,50.18c-0.91-0.28-2.12,0.14-2.34,1c-0.22,0.88,0.67,1.89,1.67,2.01c0.87,0.1,1.92-0.46,2.01-1.34
		C57.61,51.06,56.86,50.39,56.18,50.18z"/>
	<path class="st0" d="M39.45,59.22c-1.09,0-2.01,0.97-2.01,2.01c0,0.7,0.41,1.37,1,1.67c1.09,0.56,2.78-0.11,3.01-1.34
		C41.66,60.48,40.7,59.22,39.45,59.22z"/>
	<path class="st0" d="M41.46,33.11c-0.83-0.28-1.78,0.2-2.01,1c-0.19,0.65,0.15,1.34,0.67,1.67c0.77,0.49,2,0.21,2.34-0.67
		C42.76,34.36,42.3,33.39,41.46,33.11z"/>
	<path class="st0" d="M22.38,31.1c-0.85,0.33-1.63,1.31-1.34,2.01c0.23,0.56,1.06,0.77,1.67,0.67c1.17-0.2,2.04-1.66,1.67-2.34
		C24.1,30.91,23.08,30.83,22.38,31.1z"/>
	<path class="st0" d="M43.8,31.77c-0.56-0.13-1.13-0.25-1.34,0c-0.39,0.47,0.34,2.34,1.34,2.34c0.76,0.01,1.57-1.07,1.34-1.67
		C44.99,32.04,44.4,31.91,43.8,31.77z"/>
	<path class="st0" d="M36.77,20.39c-0.98-0.09-1.81,1.07-1.67,2.01c0.01,0.05,0.11,0.7,0.67,1c0.77,0.42,2.08-0.01,2.34-1
		C38.35,21.49,37.63,20.47,36.77,20.39z"/>
	<path class="st0" d="M28.07,15.04c0.8-0.47,2.34,0.43,2.34,1.34c0,0.91-1.55,1.8-2.34,1.34C27.28,17.25,27.28,15.5,28.07,15.04z"/>
	<path class="st0" d="M14.01,30.1c-0.73,1.02,0.31,2.65,1,2.68c0.84,0.04,1.99-2.26,1.34-3.01C15.92,29.26,14.57,29.31,14.01,30.1z"
		/>
	<path class="st0" d="M21.71,36.46c-0.35-0.34-1.24-0.15-1.67,0.33c-0.8,0.91,0.11,2.66,0.67,2.68
		C21.37,39.5,22.34,37.07,21.71,36.46z"/>
	<path class="st0" d="M26.39,58.55c-0.59-0.27-1.34,0.17-1.67,0.67c-0.62,0.94-0.06,2.53,0.67,2.68c0.68,0.14,1.68-0.95,1.67-2.01
		C27.06,59.81,27.05,58.85,26.39,58.55z"/>
	<path class="st0" d="M27.06,53.86c0.52,1.14-0.46,1.87,0,3.01c0.46,1.14,2.13,2.1,3.68,1.67c1.66-0.45,2.31-2.25,2.34-3.35
		c0.03-1.01-0.46-1.14-0.33-2.01c0.22-1.5,1.79-1.66,2.01-3.01c0.22-1.4-1.23-2.59-1.34-2.68c-1.34-1.07-3.45-1.13-4.02-0.33
		c-0.35,0.49,0.02,1.12-0.33,1.34c-0.39,0.24-0.91-0.48-2.01-0.67c-0.2-0.04-1.29-0.23-2.01,0.33c-0.94,0.73-1.03,2.54-0.33,3.68
		C25.44,53.04,26.56,52.75,27.06,53.86z"/>
	<path class="st0" d="M48.49,60.22c-0.54,0.21-0.85-0.3-1.67-0.33c-1.17-0.05-2.75,0.88-3.01,2.34c-0.28,1.58,1.12,3.05,2.34,3.35
		c1.07,0.26,1.69-0.44,2.34,0c0.82,0.56,0.16,1.89,1,2.68c0.72,0.67,2.11,0.54,3.01,0c1.32-0.79,1.72-2.54,1.34-3.68
		c-0.32-0.95-1.02-1.03-1-1.67c0.03-1.22,2.57-1.48,2.68-2.68c0.09-1.03-1.67-1.99-2.68-2.34c-0.57-0.2-2.09-0.73-3.01,0
		C48.93,58.58,49.3,59.9,48.49,60.22z"/>
	<path class="st0" d="M29.74,63.57c1.12-0.18,2.36,1.26,2.01,2.34c-0.26,0.81-1.41,1.41-2.34,1c-0.65-0.29-1.03-0.99-1-1.67
		C28.43,64.42,29.04,63.68,29.74,63.57z"/>
	<path class="st0" d="M29.41,70.27c-1.24,0.48-1.88-0.42-3.01,0c-1,0.38-1.85,1.6-1.67,2.68c0.21,1.28,1.8,1.92,2.01,2.01
		c1.16,0.47,1.96,0.1,2.34,0.67c0.32,0.48-0.13,0.91,0,1.67c0.19,1.15,1.63,2.65,3.35,2.34c1.57-0.28,2.48-1.91,2.34-3.01
		c-0.1-0.81-0.72-0.96-0.67-1.67c0.08-1.1,1.6-1.31,1.67-2.34c0.06-0.86-0.96-1.06-1-2.01c-0.06-1.32,1.89-1.98,1.67-2.68
		c-0.19-0.62-1.98-0.86-3.35-0.33c-0.57,0.22-1.05,0.59-2.01,1.34C29.82,69.91,29.92,70.07,29.41,70.27z"/>
	<path class="st0" d="M42.13,71.94c-0.09-0.02-0.82-0.15-1.34,0.33c-0.65,0.6-0.66,1.83,0,2.34c0.64,0.5,1.58,0.05,1.67,0
		c0.17-0.09,1.02-0.54,1-1.34C43.45,72.56,42.74,72.06,42.13,71.94z"/>
	<path class="st0" d="M48.49,70.93c-0.83-0.03-1.91,0.47-2.01,1.34c-0.09,0.78,0.67,1.46,1.34,1.67c1.14,0.36,2.62-0.42,2.68-1.34
		C50.55,71.81,49.51,70.97,48.49,70.93z"/>
	<path class="st0" d="M49.15,74.95c-1.98,1.12-1.63,2.79-3.35,4.02c-1.29,0.93-1.96,0.31-3.01,1.34c-0.83,0.81-1.58,2.33-1,3.35
		c0.6,1.06,2.39,1.14,3.35,1c0.9-0.13,1.09-0.47,1.67-0.33c1,0.23,0.97,1.32,2.01,2.01c1.09,0.71,2.97,0.73,4.02-0.33
		c0.65-0.66,1.08-1.84,0.67-2.68c-0.55-1.12-2.31-1.03-2.34-1.67c-0.03-0.54,1.2-0.61,1.67-1.67c0.33-0.74,0.25-1.83-0.33-2.34
		c-0.92-0.81-2.63,0.25-3.01-0.33c-0.41-0.63,1.34-2.29,1-2.68C50.32,74.42,49.67,74.66,49.15,74.95z"/>
	<path class="st0" d="M64.22,68.26c-0.58-0.04-1.4,1.34-1.34,2.68c0.06,1.31,0.92,1.46,1,2.68c0.1,1.49-1.16,1.82-1.34,3.68
		c-0.01,0.11-0.21,2.35,1,3.01c0.98,0.54,2.52-0.14,3.35-1c0.75-0.79,0.76-1.58,1.34-1.67c0.58-0.09,0.78,0.67,1.67,1
		c1.05,0.39,2.5-0.04,3.35-1c0.73-0.82,1.24-2.29,0.67-3.01c-0.82-1.04-3.42,0-3.68-0.67c-0.2-0.51,1.32-1.11,1.34-2.34
		c0.02-1.06-1.1-1.84-1.34-2.01c-0.95-0.66-2.48-1.01-3.35-0.33c-0.85,0.66-0.64,1.98-1,2.01C65.34,71.32,65.05,68.31,64.22,68.26z"
		/>
	<path class="st0" d="M66.23,58.22c-0.64-0.65-2.09-0.48-2.68,0.33c-0.74,1.02,0.04,2.83,1,3.01c0.85,0.16,1.87-0.93,2.01-2.01
		C66.58,59.37,66.67,58.67,66.23,58.22z"/>
	<path class="st0" d="M76.27,69.93c-0.59-0.41-1.58,0.02-2.01,0.67c-0.52,0.79-0.32,2.05,0.33,2.34c0.67,0.3,1.72-0.45,2.01-1.34
		C76.76,71.1,76.78,70.28,76.27,69.93z"/>
	<path class="st0" d="M46.81,87.67c-0.15-0.57-1.2-0.94-2.01-0.67c-0.1,0.03-0.91,0.32-1,1c-0.08,0.62,0.47,1.2,1,1.34
		C45.8,89.6,47,88.38,46.81,87.67z"/>
	<path class="st0" d="M28.4,81.31c-0.21-0.69-1.02-1.27-1.67-1c-0.5,0.2-0.76,0.83-0.67,1.34c0.16,0.87,1.4,1.41,2.01,1
		C28.46,82.39,28.54,81.76,28.4,81.31z"/>
	<path class="st0" d="M50.49,90.01c-0.76-1.06-2.59-1.06-3.35,0c-0.54,0.75-0.48,1.96,0.33,2.68c0.76,0.67,1.92,0.67,2.68,0
		C50.97,91.98,51.04,90.77,50.49,90.01z"/>
	<path class="st0" d="M69.91,82.65c-1.04-0.53-2.73,0.71-2.68,1.67c0.06,1.04,2.14,2.02,3.01,1.34
		C71.01,85.06,70.89,83.15,69.91,82.65z"/>
	<path class="st0" d="M55.18,76.62c-0.11-0.02-1.01-0.17-1.34,0.33c-0.32,0.49,0.06,1.39,0.67,1.67c0.84,0.39,2.01-0.39,2.01-1
		C56.51,77.14,55.76,76.72,55.18,76.62z"/>
	<path class="st0" d="M65.56,49.18c-0.45,0.56-1.54-0.21-2.34,0.33c-0.84,0.56-0.96,2.25-0.33,3.35c0.27,0.47,0.61,0.72,1,1
		c1.09,0.79,1.76,0.63,3.01,1.34c0.67,0.38,0.51,0.45,1.34,1c1.31,0.88,2.58,1.73,3.68,1.34c1.21-0.42,1.71-2.15,1.67-3.35
		c-0.04-1.13-0.59-2.64-1.67-3.01c-0.81-0.28-1.6,0.18-1.67,0c-0.14-0.31,2.62-1.24,2.68-2.68c0.02-0.5-0.32-0.89-1-1.67
		c-1-1.15-1.66-1.9-2.68-2.01c-1.73-0.19-3.61,1.55-3.68,3.01C65.53,48.45,65.82,48.84,65.56,49.18z"/>
	<path class="st0" d="M67.56,42.15c-0.28-0.34-0.85-0.54-1.34-0.33c-0.55,0.24-0.71,0.9-0.67,1.34c0.07,0.77,0.81,1.43,1.34,1.34
		C67.6,44.37,68.16,42.87,67.56,42.15z"/>
	<path class="st0" d="M61.2,50.52c-0.79-0.27-1.98,0.62-2.01,1.67c-0.02,0.76,0.56,1.64,1.34,1.67c0.65,0.02,1.14-0.56,1.34-1
		C62.26,52,61.94,50.77,61.2,50.52z"/>
	<path class="st0" d="M82.96,53.19c-0.95-0.17-2,0.57-2.01,1.34c0,0.44,0.35,0.82,0.67,1c0.96,0.54,2.6-0.18,2.68-1
		C84.35,53.96,83.67,53.32,82.96,53.19z"/>
	<path class="st0" d="M86.64,54.2c-0.76,0.04-1.53,2.22-1,2.68c0.38,0.33,1.78,0.03,2.01-1C87.83,55.02,87.13,54.18,86.64,54.2z"/>
	<path class="st0" d="M87.13,50.2c0.97-1.3,3.15,0.04,4.96-1.4c1.4-1.11,0.95-2.59,1.97-2.95c1.49-0.53,4.64,1.85,4.89,4.75
		c0.3,3.48-3.67,6.53-5.16,5.95c-1.13-0.44-0.51-2.86-2-3.58c-1.48-0.71-3.11,1.18-4.26,0.4C86.7,52.81,86.45,51.1,87.13,50.2z"/>
	<path class="st0" d="M60.87,21.73c0.37-0.91,2.13-1.08,2.68-0.33c0.28,0.38,0.2,0.96,0,1.34c-0.36,0.66-1.28,1.07-2.01,0.67
		C60.92,23.07,60.65,22.27,60.87,21.73z"/>
	<path class="st0" d="M53.84,15.37"/>
	<path class="st0" d="M54.51,15.37c0.18-0.52,0.86-0.64,1-0.67c0.7-0.13,1.59,0.2,1.67,0.67c0.11,0.62-1.15,1.7-2.01,1.34
		C54.72,16.51,54.33,15.88,54.51,15.37z"/>
	<path class="st0" d="M63.55,19.39c0.23-0.47,2.18-0.26,2.34,0.33c0.1,0.35-0.41,0.94-1,1C64.01,20.83,63.37,19.74,63.55,19.39z"/>
	<path class="st0" d="M72.25,19.39c0.22-0.51,1.71-0.86,2.34,0c0.52,0.71,0.17,1.82-0.33,2.01C73.5,21.68,71.96,20.05,72.25,19.39z"
		/>
	<path class="st0" d="M69.57,19.05c0.01-0.37,0.71-0.79,1.34-0.67c0.91,0.17,1.26,1.37,1,1.67C71.56,20.47,69.56,19.68,69.57,19.05z
		"/>
</g>
</svg>
