<!-- Generator: Adobe Illustrator 24.0.0, SVG Export Plug-In  -->
<svg version="1.1" xmlns="http://www.w3.org/2000/svg" xmlns:xlink="http://www.w3.org/1999/xlink" x="0px" y="0px"
	 width="151.39px" height="107.02px" viewBox="0 0 151.39 107.02" style="enable-background:new 0 0 151.39 107.02;"
	 xml:space="preserve">
<style type="text/css">
	.st0{fill:yellow;}
</style>
<defs>
</defs>
<g>
	<path class="st0" d="M92.95,42.94l36.56-36.46l6.22,6.22L99.27,49.16h30.01v7.93H85.12V12.93l7.83-0.1V42.94z"/>
	<path class="st0" d="M60.11,35.7L8.47,35.63l0-8.8l51.57,0L38.81,5.61L44.42,0l31.23,31.23L44.42,62.46L38.81,57L60.11,35.7z"/>
	<path class="st0" d="M74.59,107.02c-27.42,0-54.66-12.43-74.59-36.78l9.2-9.37c17.2,24.69,40.19,35.59,65.39,35.59
		c25.88,0,50.07-11.58,67.43-35.76l9.37,9.54C131.97,93.57,103.02,107.02,74.59,107.02z"/>
</g>
</svg>
